<?xml version="1.0" encoding="UTF-8"?>
<svg id="Calque_2" data-name="Calque 2" xmlns="http://www.w3.org/2000/svg" viewBox="0 0 1473.11 1241">
  <defs>
    <style>
      .cls-1 {
        fill: #fef585;
        stroke-width: 0px;
      }
    </style>
  </defs>
  <path class="cls-1" d="M620.11,250.32v184.54h399.1v206.27h-373.24s99.89,234.19,217.02,312.03c117.13,77.84,167.27,94.01,167.27,94.01l-89.88,193.83c-67.28-23.33-182.49-73.59-289.26-181-69.23-69.64-112.48-140.74-139-193.83-30.02,47.53-68.89,100.47-119,153.83-105.83,112.68-218.13,180.66-300.66,221-30.82-64.56-61.64-129.11-92.45-193.67,85.47-39.44,235.98-125.59,331.11-295.33,20.26-36.15,35.49-71.6,47-105l2-5H19.11v-206h387c.33-62,.67-124,1-186,26.42-.03,52.83-.03,79.25-.01,44.58.04,89.17.15,133.75.33Z"/>
</svg>